<svg width="79" height="106" viewBox="0 0 79 106" fill="none" xmlns="http://www.w3.org/2000/svg">
<g clip-path="url(#clip0_11_2)">
<path d="M32.2122 0.855202C32.8761 1.32404 33.2246 1.78317 33.5282 2.5486C33.6081 3.02728 33.6348 3.50634 33.6638 3.99051C33.9443 7.58221 34.6866 11.2563 36.1616 14.5515C36.2423 14.7432 36.3225 14.935 36.4024 15.127C37.4475 17.6217 38.6872 19.887 40.295 22.0611C40.4732 22.3099 40.6371 22.569 40.7984 22.8291C41.0419 23.2089 41.2326 23.4684 41.5831 23.7485C42.1866 23.8565 42.7089 23.7933 43.287 23.5926C43.74 23.1576 43.977 22.6609 44.2358 22.0923C44.3082 21.9443 44.3807 21.7963 44.4552 21.6438C44.9578 20.5554 45.1383 19.6753 45.1344 18.4747C45.1652 17.1502 45.9732 16.2419 46.8498 15.331C47.26 14.9645 47.6895 14.63 48.1277 14.2982C48.2478 14.2058 48.3678 14.1135 48.4916 14.0183C49.7293 13.0697 50.9809 12.1397 52.2393 11.2191C52.566 10.9774 52.8886 10.7311 53.2104 10.4828C53.4009 10.3386 53.5913 10.1945 53.7816 10.0504C53.9438 9.92545 54.1059 9.80046 54.273 9.67169C54.8421 9.35626 55.1934 9.34072 55.8341 9.40742C56.3823 9.66485 56.5793 9.8308 56.9184 10.3427C56.9878 10.8299 56.9697 11.3223 56.9667 11.8139C56.9664 11.9638 56.966 12.1138 56.9655 12.2683C56.9409 14.0652 56.7239 15.8398 56.512 17.6222C56.4579 18.1006 56.4117 18.5785 56.3702 19.0582C56.3578 19.1983 56.3456 19.3385 56.3329 19.4828C56.3112 19.7366 56.2906 19.9907 56.2714 20.2446C56.1676 21.4098 55.9145 22.5986 55.0596 23.4368C54.8158 23.5878 54.572 23.7385 54.328 23.8893C53.377 24.5546 52.9411 25.3554 52.4456 26.3889C52.3153 26.6334 52.3153 26.6334 52.1824 26.883C51.7351 27.7308 51.7351 27.7308 51.7411 28.6535C51.8976 28.9623 52.0756 29.2322 52.2714 29.5162C52.2714 29.6191 52.2714 29.7219 52.2714 29.8279C59.7303 30.4109 66.2971 29.3612 73.1295 26.2479C74.0035 25.8604 74.716 25.5535 75.6749 25.8877C76.6425 26.3348 77.1162 26.8894 77.5204 27.8794C77.993 29.2671 78.2078 30.7239 78.4498 32.1662C78.4853 32.3629 78.5209 32.5596 78.5574 32.7624C79.1047 36.2877 78.8429 40.0412 78.2949 43.5456C78.2741 43.6789 78.2534 43.812 78.232 43.9493C76.9997 51.4541 72.5226 58.2026 66.5223 62.7191C66.3921 62.819 66.3921 62.819 66.2592 62.9207C63.5213 65.0123 60.4172 66.5289 57.2185 67.7658C57.084 67.818 56.9494 67.8701 56.8108 67.9237C55.3855 68.462 53.9637 68.897 52.4263 68.6426C51.6285 68.2037 51.146 67.6462 50.8772 66.7721C50.825 66.3841 50.7845 66.0023 50.7513 65.6128C50.2714 60.8641 49.3254 56.2394 47.1596 51.9632C47.0986 51.8423 47.0374 51.7211 46.9745 51.5964C46.5487 50.7651 46.0906 49.9581 45.6106 49.1573C45.544 49.0423 45.4772 48.9273 45.4086 48.8088C44.6451 47.4255 44.6451 47.4255 43.3512 46.6749C42.8428 46.6732 42.3892 46.712 41.8929 46.8191C41.85 46.9561 41.8071 47.0932 41.763 47.2342C41.598 47.7117 41.4084 48.1449 41.1836 48.5963C41.104 48.7572 41.0242 48.9181 40.9421 49.0839C40.8131 49.3418 40.8131 49.3418 40.6816 49.605C40.5921 49.7849 40.5027 49.965 40.4105 50.1503C40.2211 50.5314 40.0312 50.9123 39.8409 51.2929C39.6007 51.7738 39.3614 52.2549 39.1223 52.7363C38.2352 54.5216 37.343 56.3022 36.4006 58.0587C36.0935 58.6387 35.8119 59.2273 35.5419 59.8256C35.1635 60.6587 34.766 61.4811 34.3583 62.2999C34.304 62.4094 34.2494 62.5188 34.1934 62.6317C33.7197 63.5832 33.242 64.5326 32.7633 65.4817C32.3682 66.2654 31.975 67.0503 31.5819 67.8352C31.2846 68.4285 30.9867 69.0214 30.6873 69.6136C30.3939 70.1938 30.1024 70.7748 29.8121 71.3566C29.7021 71.5763 29.5915 71.7957 29.4802 72.0147C29.3253 72.3196 29.1728 72.6254 29.0209 72.9317C28.9338 73.1049 28.8468 73.278 28.7571 73.4564C28.5597 73.973 28.523 74.3299 28.5714 74.8779C28.6677 75.0892 28.7706 75.2976 28.8812 75.5015C29.083 76.5092 28.8076 77.4079 28.4648 78.3463C28.4271 78.4514 28.3893 78.5563 28.3505 78.6645C28.0221 79.5086 27.6124 80.2538 26.7925 80.6984C26.3209 81.0117 26.1922 81.2679 25.9599 81.782C25.8861 81.9414 25.8124 82.1011 25.7365 82.2654C25.6625 82.4317 25.5884 82.5982 25.512 82.7695C25.3613 83.0996 25.2106 83.4298 25.0594 83.7596C24.9937 83.906 24.9282 84.0525 24.8605 84.2033C24.6988 84.5426 24.6988 84.5426 24.5439 84.6985C24.5262 84.9908 24.5097 85.2829 24.499 85.5755C24.4376 87.2561 24.2519 88.8099 23.1498 90.1544C22.7763 90.4822 22.425 90.7779 21.9106 90.7779C21.83 91.068 21.83 91.068 21.7478 91.3637C21.4229 92.3421 20.8831 93.1684 20.3324 94.032C20.2342 94.1897 20.1359 94.3475 20.0346 94.5101C19.2171 95.8092 19.2171 95.8092 18.7715 96.3403C17.7784 97.534 17.7487 98.4434 17.8542 99.9653C17.9629 101.762 17.8362 103.214 16.7698 104.72C15.6812 105.718 14.6437 106.005 13.1856 105.981C9.61402 105.813 6.03549 103.951 3.32234 101.69C3.18556 101.578 3.04878 101.466 2.90785 101.35C1.7698 100.373 0.261648 98.8953 0.0232209 97.3345C0.00151735 96.9986 -0.00295937 96.668 0.00162693 96.3312C0.00257541 96.2137 0.00352388 96.0962 0.00450109 95.9749C0.0402209 94.6992 0.477197 93.9282 1.30861 92.9603C2.33081 92.1807 3.49705 91.5921 4.63053 90.9935C5.00533 90.8139 5.00533 90.8139 5.18116 90.6221C5.193 90.3563 5.20395 90.0905 5.21028 89.8244C5.26261 88.0132 5.67115 86.4587 6.90929 85.0865C7.19489 84.8544 7.19489 84.8544 7.5702 84.7336C8.0821 84.4889 8.19211 84.2544 8.4462 83.75C8.52687 83.5919 8.60755 83.434 8.69067 83.2713C8.77213 83.1057 8.85359 82.9402 8.93753 82.7695C9.0214 82.6052 9.10526 82.4409 9.19166 82.2714C9.84108 81.0116 9.84108 81.0116 9.92503 79.6323C9.91465 78.2143 10.8432 77.0921 11.7839 76.1153C12.8925 75.0338 12.8925 75.0338 13.7008 75.0338C13.688 74.8924 13.6752 74.7509 13.662 74.6051C13.672 72.9478 14.5746 71.2294 15.6939 70.0535C16.2943 69.5181 16.8152 69.1483 17.626 69.0434C18.5221 68.6565 18.7778 67.9119 19.2095 67.0643C19.3998 66.7066 19.5903 66.349 19.7813 65.9916C19.8295 65.9002 19.8776 65.809 19.9272 65.7149C20.408 64.805 20.9245 63.9178 21.4459 63.0309C22.2851 61.5933 23.1011 60.1439 23.908 58.6877C24.4699 57.674 25.0357 56.6631 25.6089 55.6558C25.6831 55.5255 25.7571 55.3951 25.8335 55.2609C26.0748 54.8371 26.3161 54.4134 26.5576 53.9897C26.9646 53.2754 27.3712 52.561 27.7775 51.8463C27.83 51.754 27.8825 51.6618 27.9366 51.5667C28.7744 50.0923 29.6042 48.6136 30.4238 47.1288C30.8591 46.3415 31.301 45.5594 31.7583 44.7848C31.846 44.635 31.9338 44.4852 32.0241 44.3308C32.1897 44.0489 32.3572 43.768 32.5266 43.4885C32.5997 43.3635 32.6728 43.2385 32.7483 43.1097C32.8132 43.0014 32.8781 42.8932 32.9449 42.7816C33.101 42.3511 33.024 42.115 32.9086 41.675C32.8561 41.3635 32.8042 41.0518 32.7537 40.7397C27.6103 40.6418 27.6103 40.6418 22.5302 41.3632C22.2568 41.4186 21.9832 41.4739 21.7097 41.5289C19.1412 42.0717 16.6605 42.9632 14.2726 44.0522C14.1784 44.0951 14.0843 44.1379 13.9873 44.1822C13.5299 44.3914 13.0748 44.6043 12.6215 44.8223C11.5101 45.3432 10.7046 45.6631 9.49905 45.2506C7.81857 44.111 7.54884 42.2221 7.16947 40.3324C6.79626 38.3753 6.55559 36.4539 6.53837 34.4589C6.53685 34.3122 6.53531 34.1655 6.53375 34.0145C6.48381 27.9712 6.48381 27.9712 7.19489 25.1515C7.2331 24.9929 7.27131 24.8344 7.31069 24.671C8.29218 20.6597 9.89802 16.8242 12.3066 13.4604C12.4145 13.3074 12.5223 13.1545 12.6334 12.997C13.4786 11.8282 14.4104 10.7595 15.4047 9.71919C15.4939 9.62522 15.583 9.53126 15.6748 9.43444C16.9461 8.10105 18.24 6.88659 19.7419 5.82213C19.8697 5.72986 19.8697 5.72986 20.0002 5.63572C28.8231 -0.693104 28.8231 -0.693104 32.2122 0.855202Z" fill="#090807"/>
<path d="M32.1341 7.22509C32.1604 7.34424 32.1868 7.4634 32.214 7.58617C32.5161 8.93002 32.8482 10.2633 33.2184 11.5898C33.2722 11.7837 33.3258 11.9776 33.3812 12.1774C34.5365 16.191 36.4464 20.0837 39.0574 23.3345C39.1239 23.419 39.1904 23.5035 39.259 23.5906C39.4411 23.821 39.6273 24.0483 39.8138 24.2754C40.0341 24.684 40.0341 24.684 39.9567 25.0475C39.8416 25.2533 39.8416 25.2533 39.7243 25.4634C39.6264 25.6553 39.5288 25.8472 39.4314 26.0394C39.3099 26.2698 39.188 26.4998 39.066 26.7299C38.4992 27.8043 37.9397 28.882 37.3856 29.9632C36.5442 31.6048 35.6865 33.2352 34.8006 34.8531C34.0808 36.1734 33.4133 37.5176 32.7537 38.8693C32.5948 38.8668 32.436 38.8643 32.2724 38.8618C29.204 38.8188 26.1806 38.782 23.1498 39.3369C22.932 39.3757 22.932 39.3757 22.7099 39.4155C19.9848 39.9171 17.2609 40.6801 14.7499 41.872C14.4753 41.9869 14.4753 41.9869 14.1655 41.9869C14.0669 41.6203 13.9704 41.2533 13.875 40.8859C13.8481 40.7866 13.8211 40.6872 13.7933 40.5847C13.2701 38.5471 13.1779 36.4984 13.1876 34.4071C13.188 34.2232 13.188 34.2232 13.1884 34.0357C13.1949 32.0818 13.2994 30.1861 13.7008 28.2693C13.7223 28.162 13.7439 28.0548 13.7661 27.9443C14.8657 22.6231 17.4731 18.0295 21.1361 14.0839C21.2597 13.9493 21.3833 13.8147 21.5106 13.6759C23.8309 11.2385 28.5548 7.22509 32.1341 7.22509Z" fill="#CACACA"/>
<path d="M71.1694 29.3604C71.2699 29.8312 71.3698 30.3021 71.4696 30.773C71.5119 30.9712 71.5119 30.9712 71.5551 31.1734C72.1732 34.1024 72.1056 37.1638 71.6341 40.1163C71.6042 40.3038 71.6042 40.3038 71.5737 40.4953C71.2625 42.3665 70.7902 44.125 70.0851 45.884C70.0405 45.9968 69.9957 46.1097 69.9497 46.2258C67.8007 51.5718 64.0829 55.925 59.2419 58.9781C59.1468 59.0383 59.0516 59.0986 58.9535 59.1608C57.6564 59.9701 56.3143 60.5961 54.8951 61.1604C54.7439 61.2206 54.5927 61.2808 54.437 61.3428C53.659 61.6418 52.9472 61.8657 52.1165 61.9399C52.0948 61.8225 52.0731 61.7051 52.0508 61.5841C51.0541 56.2692 49.4514 50.7436 45.9583 46.488C45.8703 46.3805 45.7824 46.2729 45.6917 46.1622C45.6096 46.0673 45.5277 45.9725 45.4433 45.8748C45.3008 45.5722 45.3008 45.5722 45.4052 45.1972C45.5069 44.997 45.5069 44.997 45.6106 44.7928C45.675 44.6609 45.7396 44.5292 45.8061 44.3936C45.8789 44.2531 45.9518 44.1128 46.0269 43.9683C46.1087 43.8103 46.1907 43.6522 46.2749 43.4893C46.3625 43.3214 46.4498 43.1535 46.54 42.9807C46.6306 42.8061 46.7211 42.6316 46.8143 42.4519C47.3439 41.432 47.8757 40.4134 48.4086 39.3954C48.4694 39.2788 48.5305 39.1622 48.5932 39.0421C48.6552 38.924 48.717 38.8058 48.7806 38.6841C48.8435 38.5639 48.9064 38.4437 48.9712 38.3199C49.114 38.0471 49.2571 37.7743 49.4002 37.5016C50.4045 35.5878 51.3783 33.6678 52.2714 31.6987C52.4263 31.7099 52.5813 31.7211 52.7409 31.7327C56.4156 31.976 60.0281 32.0363 63.652 31.3082C63.984 31.2427 64.3179 31.1877 64.652 31.1347C66.1969 30.8776 67.6511 30.3534 69.1265 29.8356C69.3013 29.7746 69.476 29.7137 69.6562 29.6508C69.8132 29.595 69.9705 29.5392 70.1325 29.4817C70.5498 29.3604 70.5498 29.3604 71.1694 29.3604Z" fill="#C9CACA"/>
<path d="M34.6125 43.3899C35.3427 43.6482 35.9685 44.0396 36.6263 44.4421C37.7326 45.1095 38.8469 45.6846 40.0341 46.1957C39.937 46.8877 39.6713 47.4582 39.3607 48.0749C39.2799 48.2381 39.2799 48.2381 39.1973 48.4047C39.0169 48.769 38.8348 49.1326 38.653 49.4962C38.5232 49.7573 38.3934 50.0186 38.2637 50.2797C37.9116 50.9887 37.5583 51.697 37.2048 52.4053C36.8355 53.1456 36.4673 53.8863 36.099 54.6271C35.4013 56.0297 34.7027 57.4319 34.0038 58.8339C33.2082 60.43 32.4135 62.0267 31.6191 63.6234C29.9847 66.9078 28.3491 70.1916 26.7125 73.4751C26.1168 73.3815 25.6146 73.2758 25.0679 73.0178C24.9367 72.9559 24.8054 72.894 24.6703 72.8303C24.5328 72.7634 24.3952 72.6964 24.2535 72.6275C24.0399 72.5243 24.0399 72.5243 23.8219 72.4189C22.8896 71.9595 21.9883 71.4647 21.1069 70.9128C20.9527 70.8163 20.9527 70.8163 20.7951 70.7179C20.3332 70.4192 20.0505 70.1997 19.7419 69.734C20.722 67.9731 21.708 66.217 22.7334 64.4826C24.4017 61.6583 26.0063 58.7971 27.5972 55.9281C28.2756 54.706 28.964 53.4898 29.6557 52.2751C31.3336 49.3277 32.9761 46.3607 34.6125 43.3899Z" fill="#93643D"/>
<path d="M75.1968 27.6457C75.851 28.2403 75.9839 28.9152 76.1456 29.7501C76.1712 29.8739 76.1966 29.9978 76.2229 30.1254C76.433 31.1646 76.6127 32.2053 76.7459 33.2575C76.7841 33.4567 76.8225 33.6561 76.862 33.8615C76.7129 34.4868 76.501 34.5689 75.981 34.9234C75.8391 35.0076 75.697 35.0918 75.5508 35.1786C75.1733 35.407 75.1733 35.407 75.0704 35.7839C75.061 35.876 75.0516 35.9683 75.0419 36.0634C75.2644 36.2389 75.4871 36.4143 75.7099 36.5895C75.834 36.6871 75.958 36.7848 76.0857 36.8853C76.3504 37.0886 76.6238 37.2804 76.9008 37.4663C77.7778 43.3121 74.8421 50.4602 71.4907 55.0693C69.9418 57.1561 68.1916 59.0763 66.149 60.6836C65.7447 60.9983 65.7447 60.9983 65.3806 61.3497C65.0457 61.6541 64.7608 61.8992 64.3537 62.0957C63.8255 62.0577 63.4297 61.86 62.9596 61.6281C62.6509 61.5208 62.3412 61.4161 62.0302 61.3163C62.0531 61.4557 62.076 61.5952 62.0997 61.7389C62.1434 62.4139 62.1104 62.8613 61.8753 63.4987C61.0881 64.2775 59.9396 64.6552 58.9321 65.0575C58.6941 65.1537 58.6941 65.1537 58.451 65.2519C57.3805 65.679 56.3021 66.0795 55.2145 66.4604C55.0822 66.5077 54.9498 66.5551 54.8135 66.6038C54.6905 66.6469 54.5673 66.6901 54.4406 66.7343C54.3333 66.7722 54.2259 66.8099 54.1155 66.8489C53.6588 66.9714 53.3309 66.9342 52.891 66.7722C52.5993 66.3144 52.5287 65.908 52.4831 65.3716C52.4701 65.226 52.4572 65.0803 52.4438 64.9301C52.4255 64.7038 52.4255 64.7038 52.4069 64.4729C52.3868 64.2429 52.3868 64.2429 52.3663 64.0083C52.3336 63.6305 52.3019 63.2528 52.2714 62.8751C52.4501 62.8179 52.6287 62.7609 52.8129 62.7021C56.6775 61.4272 60.1898 59.6376 63.2694 56.9516C63.4014 56.8378 63.5334 56.724 63.6694 56.607C68.5878 52.2733 71.9273 45.559 72.5635 39.0251C72.6244 38.0029 72.6321 36.98 72.6312 35.9561C72.6314 35.8313 72.6314 35.7066 72.6314 35.578C72.6247 33.3054 72.3332 31.131 71.9439 28.8928C72.34 28.683 72.7369 28.4755 73.1346 28.2693C73.2465 28.2097 73.3582 28.1502 73.4733 28.0889C74.6194 27.499 74.6194 27.499 75.1968 27.6457Z" fill="#C8C8C8"/>
<path d="M31.2047 2.39265C31.5754 2.66657 31.6644 2.84153 31.7826 3.29446C31.9292 4.35289 32.0224 5.37673 31.9792 6.44559C31.868 6.47434 31.7568 6.50307 31.6421 6.53267C28.3063 7.47331 25.2958 9.31988 22.6851 11.5897C22.5626 11.696 22.4399 11.8023 22.3136 11.9118C21.9148 12.2657 21.5246 12.6273 21.1361 12.9927C20.9909 13.1267 20.8458 13.2607 20.6961 13.3988C15.7735 18.0596 12.7147 25.4858 12.44 32.2268C12.4238 32.8563 12.4155 33.4851 12.4131 34.1147C12.4127 34.2271 12.4121 34.3395 12.4116 34.4553C12.4082 36.7776 12.5898 39.1167 13.2567 41.3523C13.391 41.8309 13.391 41.8309 13.391 42.4544C12.9951 42.6421 12.5982 42.8268 12.2002 43.0098C12.0884 43.0631 11.9767 43.1164 11.8616 43.1715C11.233 43.4574 10.8195 43.6428 10.138 43.3897C9.82822 43.2338 9.82822 43.2338 9.65033 42.7132C9.58493 42.4748 9.52178 42.2359 9.46033 41.9966C9.42684 41.8666 9.39335 41.7366 9.35884 41.6027C8.96082 39.9862 8.70885 38.3477 8.49659 36.6974C8.45669 36.392 8.41409 36.0869 8.36801 35.7823C8.24678 34.9727 8.14719 34.2255 8.2792 33.4132C8.72203 32.87 9.18496 32.5838 9.82822 32.3221C9.7997 31.9417 9.7997 31.9417 9.67332 31.5426C9.38743 31.3445 9.38743 31.3445 9.04403 31.2114C8.46629 30.8686 8.46629 30.8686 8.33608 30.4424C8.32576 29.9667 8.3731 29.5208 8.4341 29.0485C8.44601 28.9402 8.45793 28.8317 8.47018 28.7201C9.10879 22.9743 11.3511 17.5014 14.94 12.9927C15.0074 12.908 15.0748 12.8233 15.1442 12.736C16.9941 10.4333 19.1491 8.40217 21.6008 6.75736C22.1028 6.79946 22.4713 6.95491 22.9368 7.15681C23.4362 7.41144 23.4362 7.41144 23.9243 7.38089C23.9286 7.2342 23.9331 7.08752 23.9376 6.93639C24.0532 5.4174 24.0532 5.4174 24.4852 4.89469C24.9048 4.63203 25.3246 4.45088 25.7831 4.26324C26.0424 4.14736 26.3013 4.03079 26.5601 3.91372C30.3207 2.23566 30.3207 2.23566 31.2047 2.39265Z" fill="#E0E0E0"/>
<path d="M44.0811 25.9857C44.6341 26.267 45.1762 26.5622 45.717 26.8662C45.9111 26.9733 46.1052 27.0803 46.2994 27.1873C50.1652 29.3286 50.1652 29.3286 50.5674 30.1397C50.8315 31.3977 50.2294 32.3913 49.6574 33.4717C49.5195 33.7403 49.5195 33.7403 49.3787 34.0142C49.1064 34.5427 48.8305 35.0693 48.5537 35.5956C48.4157 35.8612 48.278 36.1268 48.1404 36.3926C47.8946 36.8663 47.6468 37.339 47.3974 37.8108C47.0261 38.5143 46.6619 39.2216 46.298 39.929C45.087 42.2789 45.087 42.2789 44.4584 43.419C44.3692 43.5819 44.28 43.7449 44.188 43.9128C43.8207 44.4509 43.4023 44.8126 42.8223 45.1044C41.7552 45.2383 40.994 44.8176 40.0535 44.3445C39.8972 44.2675 39.7407 44.1903 39.5798 44.111C35.9562 42.2999 35.9562 42.2999 34.6125 41.0515C34.3475 40.2515 34.3655 39.5838 34.6556 38.806C34.7476 38.632 34.8396 38.4579 34.9344 38.2785C35.0094 38.1343 35.0094 38.1343 35.0858 37.9871C35.2484 37.6757 35.4145 37.3664 35.5807 37.057C35.6951 36.8395 35.8093 36.6219 35.9233 36.4041C36.6394 35.0413 37.3734 33.6879 38.1155 32.3394C38.8251 31.0419 39.4771 29.7166 40.1191 28.3843C41.0332 26.5084 41.7926 24.9901 44.0811 25.9857Z" fill="#636362"/>
<path d="M38.7949 24.5281C39.2464 24.6955 39.535 24.8052 39.8792 25.1516C39.8335 25.2397 39.7877 25.3279 39.7406 25.4188C39.6005 25.6886 39.4607 25.9583 39.3206 26.2281C39.1547 26.5482 38.9887 26.868 38.8228 27.1881C38.385 28.032 37.9482 28.8764 37.5138 29.7221C36.6317 31.4385 35.7346 33.1445 34.8085 34.8374C34.0863 36.1633 33.4159 37.5123 32.7537 38.8693C32.5948 38.8668 32.436 38.8643 32.2724 38.8618C29.204 38.8188 26.1806 38.782 23.1498 39.3369C22.932 39.3757 22.932 39.3757 22.7099 39.4155C19.9848 39.9171 17.2609 40.6802 14.7499 41.872C14.4753 41.9869 14.4753 41.9869 14.1655 41.9869C13.5666 39.7604 13.1587 37.6069 13.236 35.284C13.3159 35.3257 13.3958 35.3675 13.4781 35.4105C13.6027 35.4717 13.7273 35.5328 13.8557 35.5957C14.0206 35.6782 14.1855 35.7608 14.3555 35.8459C14.9861 36.1142 15.5602 36.1275 16.2373 36.112C16.4009 36.1128 16.4009 36.1128 16.5677 36.1136C17.2796 36.1064 17.9229 35.9973 18.6138 35.8303C20.7023 35.3649 22.9179 35.4081 25.0473 35.4009C25.157 35.3999 25.2668 35.3992 25.3799 35.3984C26.5057 35.3918 27.584 35.4169 28.6851 35.6752C29.2844 35.8056 29.8869 35.8423 30.4979 35.8782C30.6811 35.8932 30.6811 35.8932 30.8679 35.9083C31.5146 35.9727 31.5147 35.9727 32.0765 35.7058C32.4317 35.2612 32.6502 34.7427 32.8911 34.2299C33.0107 33.9805 33.1306 33.7312 33.2506 33.482C33.3132 33.3513 33.376 33.2207 33.4404 33.0862C34.9175 30.0181 36.4903 27.061 38.7949 24.5281Z" fill="#A7A7A7"/>
<path d="M5.80077 92.4928C5.93495 92.6117 6.06914 92.7307 6.20739 92.8532C6.43268 93.0456 6.65869 93.237 6.88508 93.4281C7.11121 93.6206 7.11121 93.6206 7.34192 93.8172C9.86609 95.9186 12.7104 97.2704 15.8694 98.1046C15.9137 98.7538 15.9503 99.4032 15.9856 100.053C15.9981 100.236 16.0107 100.419 16.0237 100.607C16.0773 101.673 16.0942 102.545 15.4047 103.405C14.552 104.166 13.7374 104.128 12.6521 104.088C8.9048 103.815 4.97096 101.184 2.54783 98.4163C1.83457 97.4728 1.77578 96.4539 1.92822 95.2987C2.33086 94.3041 3.19804 93.9172 4.09685 93.4281C4.25519 93.34 4.41353 93.2519 4.57667 93.1614C4.98357 92.9363 5.39155 92.7135 5.80077 92.4928Z" fill="#AAAAA9"/>
<path d="M72.4086 53.6781C70.6664 56.3229 68.6419 58.7221 66.149 60.6836C65.7447 60.9983 65.7447 60.9983 65.3806 61.3498C65.0457 61.6541 64.7608 61.8993 64.3537 62.0957C63.8255 62.0577 63.4297 61.86 62.9596 61.6281C62.6509 61.5208 62.3412 61.4162 62.0302 61.3163C62.0531 61.4557 62.076 61.5952 62.0997 61.7389C62.1434 62.4139 62.1104 62.8614 61.8753 63.4987C61.0881 64.2775 59.9396 64.6552 58.9321 65.0575C58.6941 65.1537 58.6941 65.1537 58.451 65.2519C57.3805 65.679 56.3021 66.0795 55.2145 66.4604C55.0159 66.5315 55.0159 66.5315 54.8135 66.6039C54.6905 66.647 54.5673 66.6901 54.4406 66.7345C54.2797 66.7911 54.2797 66.7911 54.1155 66.8489C53.6588 66.9714 53.3309 66.9342 52.891 66.7722C52.5993 66.3145 52.5287 65.908 52.4831 65.3716C52.4701 65.226 52.4572 65.0803 52.4438 64.9301C52.4317 64.7793 52.4194 64.6284 52.4069 64.4729C52.3868 64.2429 52.3868 64.2429 52.3663 64.0083C52.3336 63.6307 52.3019 63.253 52.2714 62.8752C52.4501 62.8181 52.6287 62.761 52.8129 62.7021C56.4997 61.4858 59.9849 59.8214 62.9027 57.219C63.3007 56.9289 63.5645 56.8679 64.0439 56.7957C64.3218 56.6533 64.5994 56.5103 64.8759 56.3652C65.4069 56.1136 65.9529 55.9089 66.503 55.7046C66.6114 55.6642 66.7197 55.624 66.8314 55.5824C67.0444 55.5033 67.2573 55.4243 67.4703 55.3454C68.3152 55.0305 69.147 54.705 69.9495 54.2918C71.637 53.4256 71.637 53.4256 72.4086 53.6781Z" fill="#A7A7A7"/>
<path d="M52.2714 31.6987C53.4718 31.6792 53.4718 31.6792 53.8204 31.8546C53.6995 32.4628 53.444 33.0015 53.2008 33.5693C53.1417 33.7643 53.1417 33.7643 53.0816 33.9632C52.8036 34.7526 52.4396 35.495 52.0777 36.2484C51.9964 36.4182 51.9151 36.5879 51.8313 36.763C51.211 38.0489 50.5715 39.3241 49.9189 40.5936C49.8281 40.7701 49.7375 40.9467 49.6439 41.1285C49.2461 41.896 48.8429 42.6571 48.4055 43.4026C48.3381 43.5178 48.2707 43.633 48.2013 43.7518C48.0794 43.9573 47.955 44.1615 47.8275 44.3635C47.5806 44.7771 47.4536 45.0148 47.5389 45.4985C47.8474 45.9932 48.2134 46.4177 48.6022 46.8484C49.717 48.1203 50.6869 49.4836 51.6517 50.8722C51.7157 50.9626 51.7797 51.0532 51.8457 51.1464C53.039 52.8349 53.7991 54.6686 54.5338 56.5911C54.7278 57.055 54.9564 57.4578 55.2145 57.8869C55.2145 57.9898 55.2145 58.0927 55.2145 58.1987C56.3021 58.8114 57.2651 58.8863 58.4674 58.6663C58.64 58.6083 58.8126 58.5505 58.9902 58.491C59.4339 58.3421 59.5837 58.3787 60.0165 58.5104C58.3471 59.5411 56.6748 60.4733 54.8466 61.1896C54.6246 61.277 54.6246 61.277 54.3982 61.3662C53.634 61.6554 52.9302 61.8642 52.1165 61.9399C52.0948 61.8225 52.0731 61.7051 52.0508 61.5841C51.0541 56.2692 49.4514 50.7436 45.9583 46.488C45.8703 46.3805 45.7824 46.2729 45.6917 46.1622C45.6096 46.0673 45.5277 45.9725 45.4433 45.8748C45.3008 45.5722 45.3008 45.5722 45.4052 45.1972C45.5069 44.997 45.5069 44.997 45.6106 44.7928C45.675 44.6609 45.7396 44.5292 45.8061 44.3936C45.8789 44.2531 45.9518 44.1128 46.0269 43.9683C46.1087 43.8103 46.1907 43.6522 46.2749 43.4893C46.3625 43.3214 46.4498 43.1535 46.54 42.9807C46.6306 42.8061 46.7211 42.6316 46.8143 42.4519C47.3439 41.432 47.8757 40.4134 48.4086 39.3954C48.4694 39.2788 48.5305 39.1622 48.5932 39.0421C48.6552 38.924 48.717 38.8058 48.7806 38.6841C48.8435 38.5639 48.9064 38.4437 48.9712 38.3199C49.114 38.0471 49.2571 37.7743 49.4002 37.5016C50.4045 35.5878 51.3783 33.6678 52.2714 31.6987Z" fill="#A6A7A6"/>
<path d="M18.6576 15.1751C18.811 15.2522 18.811 15.2522 18.9674 15.331C18.8624 15.469 18.7574 15.6071 18.6491 15.7493C14.6334 21.0985 12.4381 27.3898 12.4131 34.1149C12.4127 34.2271 12.4121 34.3395 12.4116 34.4553C12.4082 36.7776 12.5898 39.1166 13.2567 41.3523C13.391 41.831 13.391 41.831 13.391 42.4546C12.9951 42.6422 12.5982 42.8268 12.2002 43.0098C12.0884 43.0631 11.9767 43.1166 11.8616 43.1715C11.233 43.4575 10.8195 43.643 10.138 43.3899C9.82822 43.234 9.82822 43.234 9.65033 42.7133C9.58493 42.475 9.52178 42.236 9.46033 41.9966C9.42684 41.8666 9.39335 41.7366 9.35884 41.6027C8.96082 39.9863 8.70885 38.3477 8.49659 36.6974C8.45669 36.392 8.41409 36.0869 8.36801 35.7825C8.24678 34.9727 8.14719 34.2255 8.2792 33.4134C8.72203 32.8701 9.18496 32.5838 9.82822 32.3222C9.7997 31.9419 9.7997 31.9419 9.67332 31.5428C9.38743 31.3447 9.38743 31.3447 9.04403 31.2115C8.46629 30.8688 8.46629 30.8688 8.33608 30.4424C8.32575 29.966 8.37213 29.5216 8.4341 29.0487C8.44849 28.9319 8.46287 28.8152 8.47768 28.695C8.67473 27.1252 8.9299 25.5829 9.36351 24.0604C9.685 24.472 9.9408 24.8752 10.1671 25.3465C10.2204 25.4565 10.2737 25.5666 10.3286 25.6801C10.368 25.7628 10.4073 25.8456 10.4478 25.931C11.2434 25.973 11.2434 25.973 11.9968 25.7751C12.1026 25.5162 12.2052 25.2562 12.3067 24.9957C12.502 24.625 12.7009 24.2593 12.9069 23.8947C12.967 23.788 13.0271 23.681 13.089 23.571C13.8873 22.1604 14.7198 20.7699 15.5596 19.384C15.6185 19.2865 15.6773 19.1893 15.7379 19.089C16.1993 18.3296 16.631 17.6704 17.2635 17.0457C17.3338 16.9266 17.4042 16.8077 17.4765 16.6852C17.8114 16.1279 18.2282 15.6603 18.6576 15.1751Z" fill="#C8C8C8"/>
<path d="M71.1694 29.3604C71.7239 31.5177 71.8706 33.5267 71.789 35.7516C71.6868 35.7002 71.5845 35.6487 71.4792 35.5957C71.4792 35.4929 71.4792 35.39 71.4792 35.284C71.3897 35.2389 71.3003 35.1939 71.2081 35.1476C70.9948 35.0402 70.7838 34.9279 70.5777 34.8077C69.2285 34.219 66.5056 34.6661 65.1282 35.1281C64.9079 35.1445 64.6871 35.1527 64.4662 35.1557C64.3323 35.1575 64.1985 35.1596 64.0606 35.1616C63.843 35.1633 63.843 35.1633 63.621 35.1652C63.4698 35.1667 63.3188 35.1681 63.1631 35.1697C62.6726 35.1736 62.182 35.1755 61.6913 35.1767C61.4431 35.1775 61.4431 35.1775 61.1897 35.1783C58.473 35.1811 55.7875 35.1293 53.2008 34.1928C53.2657 33.566 53.3674 33.0276 53.5947 32.4391C53.6368 32.3289 53.679 32.2189 53.7225 32.1054C53.771 31.9811 53.771 31.9811 53.8204 31.8546C53.9925 31.8578 54.1646 31.8611 54.3419 31.8644C59.0348 31.9456 59.0348 31.9456 63.6745 31.3082C63.9967 31.2408 64.3215 31.1866 64.6466 31.1347C66.1936 30.88 67.6496 30.354 69.1266 29.8356C69.3013 29.7746 69.476 29.7137 69.656 29.6508C69.8132 29.595 69.9705 29.5392 70.1323 29.4817C70.5498 29.3604 70.5498 29.3604 71.1694 29.3604Z" fill="#E0E0E0"/>
<path d="M22.9949 85.634C23.1214 86.8873 22.9374 88.1646 22.2204 89.2193C21.2951 89.825 20.1785 90.032 19.1126 90.252C18.955 90.2849 18.7975 90.3179 18.6352 90.3519C14.9077 91.1146 10.3542 91.6133 6.73018 90.1546C6.6209 88.7463 6.90699 87.4907 7.67896 86.2965C8.1837 85.8988 8.27932 85.9012 8.88913 85.9554C9.28125 86.021 9.66876 86.1005 10.0577 86.183C10.8031 86.2848 11.5383 86.2828 12.2897 86.2837C12.4537 86.2842 12.6177 86.2846 12.7866 86.2853C13.134 86.286 13.4814 86.2863 13.8287 86.2863C14.3508 86.2867 14.8729 86.2895 15.395 86.2924C17.9522 86.2991 20.4988 85.634 22.9949 85.634Z" fill="#91643E"/>
<path d="M49.1733 29.0487C49.8591 29.2594 50.2079 29.5099 50.5674 30.1399C50.7259 31.4589 50.2655 32.3231 49.6574 33.4718C49.5654 33.6508 49.4735 33.8297 49.3787 34.0142C49.1064 34.5429 48.8305 35.0695 48.5537 35.5957C48.4157 35.8612 48.278 36.127 48.1404 36.3928C47.8946 36.8665 47.6468 37.3391 47.3974 37.811C47.0261 38.5145 46.6619 39.2216 46.298 39.929C45.087 42.2789 45.087 42.2789 44.4584 43.419C44.3692 43.5821 44.28 43.745 44.188 43.9128C43.8207 44.4511 43.4023 44.8126 42.8223 45.1046C41.7552 45.2383 40.994 44.8177 40.0535 44.3446C39.8972 44.2675 39.7407 44.1905 39.5798 44.111C35.9562 42.2999 35.9562 42.2999 34.6125 41.0516C34.3411 40.2323 34.3573 39.5725 34.69 38.7913C34.7667 38.6627 34.8433 38.5341 34.9223 38.4016C36.5798 39.4482 36.5798 39.4482 37.1297 39.8825C37.6714 40.2772 38.263 40.5723 38.8626 40.8664C39.0069 40.94 39.0069 40.94 39.1541 41.015C39.9878 41.4106 40.7367 41.5213 41.6437 41.2543C41.7386 41.2034 41.8338 41.1526 41.9317 41.1003C42.0283 41.0515 42.125 41.0027 42.2246 40.9523C43.6707 39.8852 44.5182 37.6758 45.2935 36.0858C46.1631 34.3043 47.1201 32.5697 48.089 30.8413C48.1782 30.6819 48.2676 30.5225 48.3596 30.3584C48.4428 30.2106 48.526 30.063 48.6118 29.9109C48.6865 29.7784 48.7611 29.6459 48.8381 29.5093C49.0184 29.2046 49.0184 29.2046 49.1733 29.0487Z" fill="#525151"/>
<path d="M18.5027 70.5134C18.8398 70.6973 18.8398 70.6973 19.1707 70.9615C21.5057 72.701 24.1935 74.0873 26.9268 75.0723C27.1772 75.1899 27.1772 75.1899 27.3321 75.5016C27.4974 76.8943 27.1599 78.1424 26.3542 79.2818C25.8833 79.5904 25.7139 79.5636 25.1787 79.4694C23.3223 79.0652 21.4572 78.507 19.7419 77.684C19.5999 77.6159 19.5999 77.6159 19.4549 77.5463C15.8722 75.8162 15.8722 75.8162 15.0949 75.034C15.0949 73.5378 15.7198 72.1743 16.7601 71.1076C17.3394 70.5679 17.7 70.4512 18.5027 70.5134Z" fill="#94653F"/>
<path d="M34.6125 43.3899C35.3427 43.6482 35.9685 44.0396 36.6263 44.4421C37.7326 45.1095 38.8469 45.6846 40.0341 46.1957C39.937 46.8877 39.6713 47.4582 39.3607 48.0749C39.2799 48.2381 39.2799 48.2381 39.1973 48.4047C39.0169 48.769 38.8349 49.1326 38.653 49.4962C38.5232 49.7573 38.3934 50.0186 38.2637 50.2797C37.9116 50.9887 37.5583 51.697 37.2048 52.4053C36.8355 53.1456 36.4673 53.8863 36.099 54.6271C35.4013 56.0297 34.7027 57.4319 34.0038 58.8339C33.2082 60.43 32.4135 62.0267 31.6191 63.6234C29.9847 66.9078 28.3491 70.1916 26.7125 73.4751C26.1014 73.3805 25.5756 73.2591 25.0086 73.0075C25.6609 71.4317 26.3872 69.916 27.1875 68.4113C27.5303 67.7664 27.8658 67.1181 28.198 66.4676C28.2464 66.373 28.2949 66.2782 28.3447 66.1806C28.4442 65.9859 28.5436 65.7911 28.6431 65.5964C29.3612 64.1908 30.0878 62.7925 30.8562 61.4138C31.5315 60.199 32.1343 58.9578 32.7226 57.6984C33.377 56.3033 34.0846 54.9393 34.7989 53.5746C35.2826 52.6494 35.7494 51.7165 36.2088 50.779C36.3761 50.441 36.5476 50.105 36.7243 49.7718C36.7974 49.6334 36.8704 49.495 36.9457 49.3524C37.0395 49.1799 37.0395 49.1799 37.1351 49.004C37.2747 48.6082 37.266 48.4475 37.091 48.0663C36.617 47.6442 36.0739 47.3187 35.5419 46.9751C35.4033 46.8815 35.2648 46.7878 35.122 46.6913C34.9891 46.6049 34.856 46.5186 34.7189 46.4296C34.5983 46.3507 34.4775 46.272 34.3529 46.1907C33.9101 46.0051 33.671 46.0603 33.2184 46.1957C33.4576 45.5502 33.7621 44.9587 34.0897 44.3543C34.1401 44.2612 34.1904 44.168 34.2422 44.0721C34.3653 43.8444 34.4889 43.6171 34.6125 43.3899Z" fill="#784F2E"/>
<path d="M55.0596 11.5898C54.9722 13.0321 54.876 14.4737 54.7743 15.9151C54.7496 16.2693 54.7258 16.6235 54.7019 16.9776C54.6623 17.563 54.6187 18.148 54.5724 18.733C54.5552 18.9578 54.5393 19.1827 54.5244 19.4078C54.3923 21.4016 54.3923 21.4016 53.9087 22.0107C53.5227 22.3354 53.2183 22.5188 52.7361 22.6575C52.6736 22.5931 52.6111 22.5289 52.5466 22.4626C51.2219 21.1945 49.5268 20.3567 47.7792 19.8516C47.5199 19.7504 47.2611 19.648 47.0047 19.5399C46.9548 18.7201 47.0081 18.0462 47.4694 17.3575C48.2608 16.5068 49.2164 15.8286 50.145 15.1392C51.0498 14.4665 51.9391 13.7732 52.8312 13.0838C54.7724 11.5898 54.7724 11.5898 55.0596 11.5898Z" fill="#676666"/>
<path d="M5.80077 92.4928C5.93495 92.6117 6.06914 92.7307 6.20739 92.8532C6.43268 93.0456 6.65869 93.237 6.88508 93.4281C7.03583 93.5564 7.1866 93.6848 7.34192 93.8172C9.13161 95.3063 11.1063 96.4043 13.2361 97.3251C13.2877 98.1359 13.3308 98.8213 13.0037 99.5756C12.3056 100.296 11.618 100.631 10.6124 100.667C7.59819 100.528 4.90982 97.9225 2.85763 95.9222C2.73523 95.819 2.61282 95.716 2.48672 95.6098C2.23802 95.2987 2.23802 95.2987 2.24044 94.8979C2.42189 94.4472 2.56584 94.3243 2.97381 94.0711C3.0974 93.9939 3.22102 93.9168 3.34836 93.8373C4.15639 93.3706 4.9751 92.9268 5.80077 92.4928Z" fill="#CECECE"/>
<path d="M13.7008 76.4369C14.3724 76.6692 14.6246 77.1682 14.969 77.7521C15.8874 79.2465 16.9985 80.5433 18.1742 81.8392C18.4745 82.1732 18.765 82.5137 19.0546 82.8572C19.5229 83.4027 20.0389 83.8622 20.5933 84.3174C20.6701 84.3917 20.7471 84.4661 20.8263 84.5428C20.8263 84.6457 20.8263 84.7486 20.8263 84.8546C19.6997 85.0429 18.5744 85.2276 17.433 85.2881C16.943 85.3133 16.943 85.3133 16.4261 85.4245C15.7949 85.5088 15.3954 85.516 14.7851 85.3222C13.9321 84.6073 13.3543 83.6091 12.7714 82.6722C12.6395 82.4667 12.5076 82.2613 12.3756 82.0558C11.1878 80.1765 11.1878 80.1765 11.3772 79.0869C11.8825 77.971 12.7727 77.1986 13.7008 76.4369Z" fill="#92643E"/>
<path d="M32.1341 7.22509C32.1604 7.34424 32.1868 7.4634 32.214 7.58617C32.5161 8.93002 32.8482 10.2633 33.2184 11.5898C33.2722 11.7837 33.3259 11.9776 33.3812 12.1774C34.5081 16.0928 36.3628 19.8915 38.8623 23.0985C39.0584 23.3583 39.2377 23.6308 39.4145 23.9046C39.3378 24.136 39.3378 24.136 39.2596 24.3722C38.0473 24.2081 37.1886 22.6042 36.4907 21.6929C36.2924 21.4299 36.0954 21.1662 35.899 20.9018C35.6962 20.6303 35.491 20.3609 35.2854 20.0915C34.1917 18.6426 33.2557 17.117 32.3477 15.5447C32.1473 15.198 31.9447 14.8527 31.7414 14.5077C31.627 14.3113 31.5125 14.1149 31.3983 13.9183C31.3001 13.7493 31.2019 13.5803 31.1006 13.4062C30.8949 12.9927 30.8949 12.9927 30.8949 12.5251C30.7926 12.5251 30.6904 12.5251 30.5851 12.5251C30.3904 12.0721 30.2753 11.7775 30.2753 11.278C30.173 11.278 30.0708 11.278 29.9655 11.278C29.915 11.1691 29.8645 11.0602 29.8124 10.948C29.7447 10.8061 29.677 10.6643 29.6072 10.5181C29.5076 10.3065 29.5076 10.3065 29.4058 10.0906C29.2034 9.67797 29.2034 9.67797 28.7263 9.40744C28.4699 9.34742 28.2117 9.29397 27.9517 9.25156C28.1017 8.87466 28.201 8.66709 28.5453 8.44524C28.6575 8.39726 28.7698 8.34926 28.8853 8.29982C29.0695 8.21949 29.0695 8.21949 29.2573 8.13754C29.3855 8.084 29.5138 8.03045 29.6459 7.97527C29.7737 7.91992 29.9013 7.86455 30.033 7.80751C31.3848 7.22508 31.3848 7.22509 32.1341 7.22509Z" fill="#DFDFDF"/>
<path d="M9.36353 32.634C9.46576 32.6854 9.568 32.7369 9.67333 32.7899C9.51998 33.0213 9.51998 33.0213 9.36353 33.2575C10.055 34.2316 10.943 34.7537 11.9969 35.284C12.048 34.7696 12.0991 34.2551 12.1518 33.7251C12.2029 33.7251 12.254 33.7251 12.3067 33.7251C12.3107 33.9049 12.3147 34.0848 12.3188 34.2701C12.3679 35.8384 12.5129 37.3683 12.7617 38.9179C12.788 39.0822 12.8143 39.2467 12.8414 39.4159C12.9516 40.0742 13.0644 40.7207 13.256 41.3603C13.391 41.831 13.391 41.831 13.391 42.4546C12.9951 42.6422 12.5982 42.8268 12.2002 43.0098C12.0885 43.0631 11.9767 43.1166 11.8616 43.1715C11.233 43.4575 10.8195 43.643 10.138 43.3899C9.82823 43.234 9.82824 43.234 9.65035 42.7133C9.58495 42.475 9.52179 42.236 9.46034 41.9966C9.42685 41.8666 9.39335 41.7366 9.35884 41.6027C8.92235 39.83 8.66224 38.0292 8.43412 36.2193C8.41477 36.0734 8.39544 35.9276 8.3755 35.7775C8.32652 35.3892 8.28633 35.0014 8.25017 34.6117C8.22898 34.4442 8.22898 34.4442 8.20737 34.2734C8.18542 33.9607 8.18542 33.9607 8.27922 33.4134C8.60485 33.084 8.9586 32.8541 9.36353 32.634Z" fill="#AAAAAA"/>
<path d="M31.6694 48.6899C31.9792 48.6832 32.289 48.6835 32.5988 48.6899C32.6755 48.767 32.6755 48.767 32.7537 48.8457C32.73 49.9396 32.2026 50.7237 31.6694 51.6516C31.4936 51.9695 31.3193 52.2882 31.1449 52.6069C30.4376 53.8976 29.7138 55.1786 28.9854 56.4573C28.4048 57.4773 27.8288 58.4998 27.2547 59.5237C25.8496 62.0276 24.4311 64.5231 22.9888 67.0056C22.3121 68.1706 21.6424 69.3394 20.9812 70.5134C20.2703 70.4359 20.2703 70.4359 19.9483 70.0384C19.8801 69.9379 19.8121 69.8375 19.7419 69.734C20.722 67.9731 21.708 66.217 22.7334 64.4826C24.4006 61.6602 26.0043 58.8007 27.5941 55.9336C28.4048 54.4732 29.2289 53.0207 30.0559 51.5696C30.6006 50.6134 31.1412 49.6554 31.6694 48.6899Z" fill="#B38760"/>
<path d="M7.81449 91.7134C8.10497 91.7355 8.39541 91.7584 8.68582 91.7815C8.84755 91.7941 9.0093 91.8069 9.17594 91.8199C9.67332 91.8693 9.67332 91.8693 10.0872 91.9508C10.8588 92.0619 11.625 92.0543 12.4035 92.0543C12.6592 92.0559 12.6592 92.0559 12.9201 92.0574C14.0342 92.0548 15.0978 91.9527 16.1986 91.7913C17.418 91.6209 17.418 91.6209 18.0053 91.9703C18.2848 92.2895 18.4831 92.5743 18.6576 92.9604C18.394 93.7578 17.933 94.4179 17.4765 95.1135C17.3966 95.2363 17.3168 95.3593 17.2344 95.4859C17.0383 95.7875 16.8414 96.0888 16.6439 96.3898C13.5816 95.9755 10.0989 94.4133 8.03717 92.0348C7.96368 91.9288 7.8902 91.8227 7.81449 91.7134Z" fill="#764E2E"/>
<path d="M15.2498 73.631C15.3758 73.7065 15.5018 73.7821 15.6316 73.8599C19.6321 76.3195 19.6321 76.3195 24.1325 76.6676C24.2171 76.643 24.3018 76.6182 24.389 76.5928C24.4096 76.5068 24.4302 76.4207 24.4513 76.3322C24.5527 75.9348 24.6678 75.5434 24.7859 75.1509C24.8277 75.0118 24.8694 74.8728 24.9124 74.7294C24.9442 74.6242 24.9759 74.5189 25.0086 74.4104C25.2541 74.4811 25.4993 74.5528 25.7444 74.6248C25.881 74.6645 26.0175 74.7043 26.1583 74.7453C26.5237 74.8667 26.8461 74.9931 27.1772 75.1899C27.5279 75.8955 27.4022 76.7735 27.2208 77.517C26.9458 78.3406 26.6871 79.0637 25.938 79.5546C23.8597 79.4035 21.607 78.5789 19.7419 77.684C19.5999 77.6159 19.5999 77.6159 19.4549 77.5463C15.8722 75.8162 15.8722 75.8162 15.0949 75.034C15.0985 74.6966 15.0985 74.6966 15.153 74.313C15.1702 74.1855 15.1873 74.0581 15.205 73.9269C15.2198 73.8293 15.2346 73.7316 15.2498 73.631Z" fill="#774E2D"/>
<path d="M22.9949 85.634C23.1214 86.8873 22.9374 88.1646 22.2204 89.2193C21.2951 89.825 20.1785 90.032 19.1126 90.252C18.955 90.2849 18.7975 90.3179 18.6352 90.3519C14.9077 91.1146 10.3542 91.6133 6.73018 90.1546C6.73018 89.6401 6.73018 89.1257 6.73018 88.5957C6.7813 88.8015 6.83242 89.0073 6.88508 89.2193C7.03624 89.2398 7.18739 89.2606 7.34313 89.2819C7.54021 89.3095 7.73729 89.337 7.94035 89.3653C8.13624 89.3925 8.33211 89.4196 8.53394 89.4475C9.05371 89.531 9.05371 89.531 9.51842 89.6869C12.6899 89.8899 17.1906 89.9426 19.8236 87.7767C20.0917 87.4569 20.191 87.1689 20.3228 86.7738C20.4553 86.4121 20.4553 86.4121 20.6714 86.1016C21.4163 85.7691 22.1824 85.634 22.9949 85.634Z" fill="#754D2D"/>
<path d="M43.5968 25.775C44.3481 26.1072 45.0599 26.5025 45.7751 26.9051C45.9672 27.0107 46.1592 27.116 46.3515 27.2213C48.3046 28.2947 48.3046 28.2947 49.1733 28.8926C49.1733 28.9955 49.1733 29.0984 49.1733 29.2044C48.3125 29.1238 47.6672 28.8919 46.8981 28.5029C46.0565 28.0456 46.0565 28.0456 45.1459 27.8015C45.034 27.8916 44.9222 27.9815 44.8069 28.0743C44.3856 28.4135 44.1858 28.4948 43.6839 28.6297C42.6839 28.9389 42.2277 29.6582 41.7089 30.5294C41.4194 31.0698 41.4194 31.0698 41.2055 31.6401C40.937 32.2238 40.696 32.5542 40.189 32.9456C39.7145 33.043 39.7145 33.043 39.2596 32.9456C38.8819 32.6241 38.8819 32.6241 38.64 32.1662C38.6933 31.3949 38.8795 30.8073 39.2233 30.1202C39.3536 29.8586 39.3536 29.8586 39.4865 29.5918C39.6233 29.3229 39.6233 29.3229 39.763 29.0485C39.8519 28.8693 39.9407 28.6901 40.0322 28.5054C41.6691 25.2487 41.6691 25.2487 43.5968 25.775Z" fill="#949494"/>
<path d="M75.1969 27.6457C75.8423 28.2359 75.9892 28.9039 76.1552 29.7307C76.1813 29.8529 76.2071 29.9751 76.2338 30.101C76.4653 31.2535 76.5566 32.395 76.591 33.5693C76.4322 33.5714 76.2734 33.5736 76.11 33.576C75.8992 33.5833 75.6884 33.5908 75.4775 33.5984C75.3733 33.5994 75.2689 33.6003 75.1614 33.6012C74.5758 33.6271 74.2891 33.708 73.824 34.074C73.2937 34.7636 73.1483 35.3284 73.0863 36.19C73.0747 36.3421 73.0631 36.4942 73.0512 36.6509C73.0436 36.7656 73.036 36.8804 73.0282 36.9987C72.9771 36.9987 72.926 36.9987 72.8733 36.9987C72.8657 36.8286 72.8581 36.6587 72.8504 36.4835C72.742 34.2177 72.6148 31.9632 72.0195 29.7659C71.8967 29.107 71.8967 29.107 72.0988 28.7369C72.4751 28.5096 72.8231 28.3283 73.2219 28.1524C73.3255 28.1031 73.4291 28.0538 73.5358 28.0032C74.6119 27.5117 74.6119 27.5117 75.1969 27.6457Z" fill="#E0E0E0"/>
<path d="M15.8694 77.0604C16.369 77.2472 16.845 77.4678 17.3222 77.7052C19.1748 78.6252 21.0318 79.3784 22.9949 80.0222C23.2571 80.1098 23.5194 80.1977 23.7815 80.2858C23.898 80.3249 24.0145 80.3641 24.1343 80.4043C24.2185 80.4325 24.3024 80.4607 24.389 80.4898C24.2846 81.2869 23.9494 81.9757 23.6241 82.7014C23.5683 82.829 23.5126 82.9568 23.4551 83.0884C23.0345 84.0351 23.0345 84.0351 22.6851 84.3869C22.173 84.3344 21.8977 84.1275 21.5281 83.781C21.4279 83.6873 21.3275 83.5935 21.2242 83.497C21.1184 83.3952 21.0128 83.2934 20.9037 83.1885C20.7936 83.0833 20.6834 82.9779 20.5699 82.8694C18.8022 81.1555 17.2881 79.2288 15.8694 77.2163C15.8694 77.1649 15.8694 77.1134 15.8694 77.0604Z" fill="#774F2F"/>
<path d="M46.54 21.4104C47.4129 21.4708 48.0723 21.7298 48.8442 22.1314C48.9521 22.1864 49.0599 22.2414 49.1711 22.2982C50.0213 22.7439 50.779 23.2623 51.4968 23.9046C51.4149 24.7448 51.1153 25.3452 50.7126 26.0674C50.6542 26.1747 50.5958 26.2819 50.5357 26.3926C50.3926 26.6551 50.2479 26.9167 50.1027 27.1781C49.4941 27.0722 49.0333 26.78 48.5052 26.4668C47.6847 25.985 46.8566 25.5214 46.0172 25.0737C45.915 25.0191 45.8126 24.9644 45.7072 24.9083C45.4685 24.7812 45.2298 24.6547 44.991 24.5281C45.2196 24.0374 45.4489 23.5471 45.6783 23.0569C45.7435 22.9169 45.8087 22.7769 45.8759 22.6327C45.9383 22.4996 46.0008 22.3665 46.0651 22.2294C46.1513 22.0444 46.1513 22.0444 46.2395 21.8558C46.3851 21.5663 46.3851 21.5663 46.54 21.4104Z" fill="#92633D"/>
<path d="M54.7498 13.6163C54.8009 13.6163 54.852 13.6163 54.9047 13.6163C54.8323 14.6289 54.7583 15.6412 54.6813 16.6535C54.6256 17.3921 54.5757 18.1305 54.5326 18.87C54.5114 19.1874 54.4902 19.5049 54.469 19.8223C54.462 19.969 54.4549 20.1155 54.4476 20.2666C54.3791 21.2167 54.2058 21.687 53.5106 22.3457C53.0748 22.5601 53.0748 22.5601 52.7361 22.6575C52.6735 22.5931 52.6111 22.5289 52.5466 22.4626C51.2219 21.1945 49.5268 20.3567 47.7792 19.8516C47.5199 19.7505 47.2611 19.648 47.0047 19.5399C46.9604 18.3818 46.9604 18.3818 47.3145 17.8251C47.4678 17.8766 47.6212 17.928 47.7792 17.981C47.7792 18.0839 47.7792 18.1868 47.7792 18.2928C47.8879 18.3106 47.9968 18.3285 48.109 18.3469C48.5952 18.4582 49.0161 18.629 49.4734 18.8286C50.8306 19.4766 50.8306 19.4766 52.2714 19.384C52.8882 18.8524 53.1727 18.4105 53.4156 17.6351C53.4746 17.4512 53.5335 17.2674 53.5944 17.078C53.6529 16.8872 53.7116 16.6966 53.7719 16.5001C53.8918 16.1217 54.0118 15.7433 54.132 15.3651C54.1838 15.1978 54.2357 15.0305 54.2891 14.8581C54.4268 14.4359 54.5806 14.0266 54.7498 13.6163Z" fill="#555454"/>
<path d="M11.5321 78.7752C11.8612 79.1062 11.9534 79.3326 12.1324 79.7591C12.9024 81.334 14.374 82.9699 16.0243 83.6075C16.6139 83.7264 17.0823 83.6758 17.6508 83.4613C18.0295 82.9372 17.9301 82.3631 17.8831 81.7369C18.0317 81.8864 18.0317 81.8864 18.1832 82.0389C18.2883 82.1444 18.2883 82.1444 18.3957 82.252C18.5952 82.4534 18.7939 82.6557 18.9922 82.8585C19.4891 83.3645 19.9724 83.8557 20.5261 84.2992C20.6252 84.3796 20.7242 84.4599 20.8263 84.5428C20.8263 84.6457 20.8263 84.7486 20.8263 84.8546C19.6997 85.0429 18.5744 85.2276 17.433 85.2881C16.943 85.3133 16.943 85.3133 16.4261 85.4245C15.7949 85.5088 15.3954 85.516 14.7851 85.3222C13.9321 84.6073 13.3543 83.6091 12.7714 82.6722C12.6395 82.4668 12.5076 82.2613 12.3756 82.0559C11.3552 80.4414 11.3552 80.4414 11.3579 79.7104C11.3573 79.5465 11.3573 79.5465 11.3567 79.3792C11.3772 79.0869 11.3772 79.0869 11.5321 78.7752Z" fill="#744D2D"/>
<path d="M46.54 21.4104C47.4135 21.4903 48.0681 21.7277 48.8441 22.1314C48.9521 22.1864 49.0599 22.2414 49.1711 22.2982C50.0212 22.7439 50.779 23.2623 51.4968 23.9046C51.4149 24.7448 51.1153 25.3452 50.7126 26.0674C50.6542 26.1747 50.5958 26.2819 50.5357 26.3926C50.3926 26.6551 50.2479 26.9167 50.1027 27.1781C49.5047 27.0559 49.1713 26.7996 48.7086 26.3987C48.8108 26.09 48.9131 25.7814 49.0184 25.4634C49.1206 25.4634 49.2229 25.4634 49.3282 25.4634C49.3505 25.2928 49.373 25.1225 49.3959 24.9469C49.4831 24.3722 49.4831 24.3722 49.638 23.9046C49.4805 23.8463 49.4805 23.8463 49.3197 23.787C48.7768 23.5558 48.2704 23.2737 47.7598 22.9789C47.6638 22.9248 47.5678 22.8706 47.4688 22.8148C47.0005 22.5457 46.5837 22.2921 46.2302 21.8781C46.3324 21.7238 46.4346 21.5694 46.54 21.4104Z" fill="#754C2D"/>
<path d="M8.86976 85.9845C8.99855 86.0015 9.12735 86.0184 9.26004 86.0357C9.53945 86.0803 9.81837 86.1278 10.0968 86.1783C10.6242 86.2608 11.1437 86.3052 11.6762 86.3409C11.8758 86.3545 12.0755 86.368 12.2812 86.3819C12.4898 86.3956 12.6983 86.4093 12.9069 86.423C13.1191 86.4372 13.3313 86.4516 13.5435 86.4659C14.0606 86.5008 14.5777 86.5351 15.0949 86.5691C14.8238 87.1732 14.8238 87.1732 14.4753 87.3485C12.1507 87.6816 9.81471 87.5431 7.50469 87.1926C7.56067 86.7758 7.61566 86.4773 7.85503 86.1283C8.22458 85.8776 8.4332 85.9225 8.86976 85.9845Z" fill="#AC805C"/>
<path d="M5.02626 93.7397C5.50065 94.0709 5.50065 94.0709 5.80077 94.5191C5.82614 95.2343 5.72656 95.5169 5.25861 96.0584C5.13082 96.1677 5.00302 96.2771 4.87136 96.3897C4.82024 96.4411 4.76912 96.4926 4.71646 96.5456C4.04249 96.6527 3.68558 96.6896 3.11418 96.2948C2.4813 95.6982 2.4813 95.6982 2.23802 95.2985C2.24413 94.7959 2.32085 94.5938 2.66946 94.2329C3.53215 93.6462 4.01215 93.4165 5.02626 93.7397Z" fill="#DFE0DF"/>
<path d="M11.0674 82.5163C11.7776 82.7567 12.0934 83.3264 12.5003 83.9193C12.5714 84.0193 12.6424 84.1194 12.7157 84.2225C13.2361 84.9674 13.2361 84.9674 13.2361 85.3222C12.781 85.3002 12.326 85.2773 11.871 85.2539C11.7419 85.2478 11.6128 85.2416 11.4798 85.2354C11.3555 85.2288 11.2312 85.2223 11.1031 85.2156C10.9888 85.2098 10.8744 85.2042 10.7565 85.1983C10.4478 85.1663 10.4478 85.1663 9.98312 85.0104C10.238 84.1242 10.6477 83.3321 11.0674 82.5163Z" fill="#724B2E"/>
<path d="M53.0942 13.1584C53.3557 13.3046 53.3557 13.3046 53.5106 13.6163C53.5687 14.2365 53.5773 14.5939 53.2589 15.1362C52.7375 15.6333 52.257 15.9062 51.5452 16.0228C51.187 15.9546 51.187 15.9546 50.9062 15.6428C50.8456 15.5399 50.7849 15.437 50.7223 15.331C50.9652 14.7309 51.339 14.3666 51.8067 13.9281C51.8843 13.8527 51.962 13.7774 52.0421 13.6998C52.6439 13.1462 52.6439 13.1462 53.0942 13.1584Z" fill="#8B8B8A"/>
<path d="M49.8413 15.7987C50.2576 15.9546 50.2576 15.9546 50.7223 16.2663C50.6582 17.0884 50.5225 17.541 49.9478 18.1369C49.5096 18.3573 49.1928 18.3425 48.7086 18.2928C48.2193 17.8512 48.1612 17.3736 48.089 16.734C49.1504 15.7987 49.1504 15.7987 49.8413 15.7987Z" fill="#8E8E8D"/>
<path d="M46.2302 22.034C46.8498 22.3457 46.8498 22.3457 47.3145 22.6575C47.2358 23.5873 46.9449 24.3158 46.54 25.1516C45.873 25.0558 45.6131 24.9036 44.991 24.5281C45.3999 23.705 45.8088 22.882 46.2302 22.034Z" fill="#AA7E59"/>
<path d="M10.4478 93.584C11.6747 93.6354 12.9015 93.6868 14.1655 93.7398C14.0106 94.9869 14.0106 94.9869 13.8557 95.4545C12.9799 95.3797 12.3802 95.1443 11.629 94.6946C11.5317 94.6398 11.4345 94.5849 11.3343 94.5283C10.6229 94.1124 10.6229 94.1124 10.4478 93.584Z" fill="#8B603D"/>
<path d="M18.5027 70.5134C18.854 70.7447 19.1257 70.9991 19.4321 71.2928C19.2332 71.7394 19.0579 72.0962 18.6576 72.384C18.1686 72.4735 17.8614 72.4615 17.4269 72.2086C17.1577 72.0156 16.8984 71.8167 16.6439 71.6046C17.0109 70.712 17.5361 70.3578 18.5027 70.5134Z" fill="#B38A62"/>
<path d="M52.2714 31.6987C53.4718 31.6792 53.4718 31.6792 53.8204 31.8546C53.7367 32.2753 53.6054 32.6167 53.4331 33.0139C53.2412 33.4726 53.1194 33.8603 53.0459 34.3487C52.9947 34.2458 52.9436 34.1429 52.891 34.0369C52.5985 33.9301 52.5985 33.9301 52.2616 33.8615C52.0912 33.8223 52.0912 33.8223 51.9174 33.7824C51.8297 33.7635 51.7421 33.7445 51.6517 33.7251C51.7433 32.9696 51.9583 32.3833 52.2714 31.6987Z" fill="#B7B6B7"/>
<path d="M45.1459 26.7104C48.4219 28.322 48.4219 28.322 49.1733 28.8928C49.1733 28.9957 49.1733 29.0986 49.1733 29.2046C48.3125 29.1238 47.6672 28.8919 46.8981 28.5031C46.0556 28.0538 46.0556 28.0538 45.1459 27.8016C44.9925 27.8788 44.9925 27.8788 44.8361 27.9575C44.9716 26.8858 44.9716 26.8858 45.1459 26.7104Z" fill="#838483"/>
<path d="M18.6576 15.1751C18.7599 15.2265 18.8621 15.278 18.9674 15.331C18.857 15.4781 18.7465 15.6252 18.6328 15.7767C17.7291 16.992 16.9027 18.2053 16.1792 19.5399C16.0258 19.4884 15.8725 19.437 15.7145 19.384C15.918 18.8282 16.1612 18.3555 16.489 17.8641C16.6087 17.682 16.6087 17.682 16.731 17.4962C16.9537 17.2016 16.9537 17.2016 17.2635 17.0457C17.3273 16.9363 17.3913 16.827 17.4571 16.7145C17.8004 16.1468 18.2196 15.6701 18.6576 15.1751Z" fill="#C2C2C2"/>
<path d="M47.9341 16.8899C48.2439 17.2016 48.2439 17.2016 48.4569 17.6693C48.715 18.1488 48.8294 18.2755 49.3282 18.4487C48.302 18.4682 48.302 18.4682 47.7792 18.2928C47.7792 18.1899 47.7792 18.087 47.7792 17.981C47.6258 17.981 47.4725 17.981 47.3145 17.981C47.4019 17.4713 47.5468 17.2287 47.9341 16.8899Z" fill="#737273"/>
<path d="M3.16744 93.8957C3.26967 93.9472 3.37191 93.9986 3.47724 94.0516C3.42612 94.1545 3.375 94.2574 3.32234 94.3634C3.12299 94.9651 3.14612 95.4454 3.16744 96.0781C2.86073 95.8209 2.55402 95.5637 2.23802 95.2987C2.28545 94.7258 2.35539 94.5532 2.78986 94.1587C2.91447 94.0719 3.03905 93.985 3.16744 93.8957Z" fill="#CAC9C9"/>
<path d="M15.8694 77.0604C16.5661 77.3233 17.2215 77.6553 17.8831 77.9957C17.7298 78.2272 17.7298 78.2272 17.5733 78.4634C17.1988 78.5309 17.1988 78.5309 16.7988 78.4634C16.5198 78.196 16.5198 78.196 16.2856 77.8495C16.2065 77.7356 16.1272 77.6216 16.0455 77.5042C15.8694 77.2163 15.8694 77.2163 15.8694 77.0604Z" fill="#66452B"/>
<path d="M10.4478 83.9193C10.6251 84.1024 10.6251 84.1024 10.806 84.2895C11.2082 84.7099 11.2082 84.7099 11.687 85.0104C11.1247 85.0104 10.5625 85.0104 9.98312 85.0104C10.2736 84.0946 10.2736 84.0946 10.4478 83.9193Z" fill="#855C3E"/>
<path d="M18.6576 15.1751C18.7599 15.2265 18.8621 15.278 18.9674 15.331C18.4051 16.1026 17.8428 16.8743 17.2635 17.6693C17.2124 17.5149 17.1613 17.3606 17.1086 17.2016C17.5323 16.4514 18.0901 15.8186 18.6576 15.1751Z" fill="#B5B5B5"/>
<path d="M14.0106 76.4369C14.0106 76.7487 14.0106 76.7487 13.7298 77.0799C13.391 77.3722 13.391 77.3722 12.9263 77.3722C12.8751 77.578 12.824 77.7837 12.7714 77.9957C12.6691 77.9443 12.5669 77.8929 12.4616 77.8399C12.692 77.2137 13.303 76.4369 14.0106 76.4369Z" fill="#976F48"/>
<path d="M46.54 21.4104C46.6422 21.4104 46.7445 21.4104 46.8498 21.4104C46.869 21.5358 46.888 21.6611 46.9079 21.7903C46.9557 21.9881 46.9557 21.9881 47.0047 22.1899C47.1069 22.2413 47.2092 22.2927 47.3145 22.3457C47.2634 22.4486 47.2123 22.5515 47.1596 22.6575C46.8529 22.4517 46.5462 22.246 46.2302 22.034C46.3324 21.8282 46.4346 21.6224 46.54 21.4104Z" fill="#7B5333"/>
<path d="M11.5321 78.7752C11.8634 79.1084 11.908 79.2634 11.9968 79.7104C11.6901 79.8648 11.6901 79.8648 11.3772 80.0222C11.3579 79.1259 11.3579 79.1259 11.5321 78.7752Z" fill="#7C5432"/>
</g>
<defs>
<clipPath id="clip0_11_2">
<rect width="79" height="106" fill="white"/>
</clipPath>
</defs>
</svg>
